#!OML:ASF H:\Terrain\Patient Classification 1\Walking\steve\steve.ASF
:FULLY-SPECIFIED
:DEGREES
111
root 7.80921 15.6542 -16.755 8.88587 -7.54826 -6.87752
lowerback 0.87623 4.42888 7.45859
upperback -3.27557 6.17219 1.52479
thorax -3.28064 2.88741 -2.76376
lowerneck -11.0462 -1.4188 -2.64584
upperneck 13.7666 -1.88077 2.68096
head 6.03755 -0.84143 1.12494
rclavicle 6.23501e-014 -5.96354e-015
rhumerus -24.3632 6.95012 -86.8889
rradius 65.4447
rwrist -9.03205
rhand -22.9818 -29.3697
rfingers 7.12502
rthumb 3.46071 -59.3214
lclavicle 6.23501e-014 -5.96354e-015
lhumerus -58.4899 21.927 59.7699
lradius 5.45474
lwrist -26.2762
lhand -23.9615 -14.2824
lfingers 7.12502
lthumb 2.51455 15.6825
rfemur 6.61841 -3.38887 28.7956
rtibia 14.5591
rfoot -4.81904 26.2443
rtoes 18.0796
lfemur -40.9621 0.227881 -8.4549
ltibia 18.9208
lfoot -17.7995 9.30778
ltoes -4.8783
112
root 7.82168 15.6306 -16.4781 9.18535 -7.86669 -6.9788
lowerback 0.579418 4.54024 7.38133
upperback -3.3453 6.29057 1.40666
thorax -3.16871 2.95019 -2.82087
lowerneck -11.3015 -1.41927 -2.26888
upperneck 13.8585 -1.92524 2.55918
head 6.10683 -0.850666 1.01945
rclavicle -2.73329e-016 -1.2921e-014
rhumerus -24.2532 7.20491 -86.8722
rradius 66.5072
rwrist -9.16189
rhand -26.0973 -28.4365
rfingers 7.12502
rthumb 0.451779 -58.4158
lclavicle -2.73329e-016 -1.2921e-014
lhumerus -59.4528 21.7826 58.5821
lradius 5.48767
lwrist -25.1052
lhand -24.1188 -14.1729
lfingers 7.12502
lthumb 2.36259 15.7938
rfemur 7.86035 -2.72817 28.6398
rtibia 13.5554
rfoot -3.75298 25.7553
rtoes 18.2036
lfemur -41.4143 1.8083 -9.16887
ltibia 18.0522
lfoot -16.9142 8.71959
ltoes -9.90566
113
root 7.83506 15.6022 -16.2043 9.47377 -8.05959 -7.40645
lowerback 0.390719 4.68369 7.76998
upperback -3.45807 6.47677 1.34411
thorax -3.11602 3.03059 -3.08482
lowerneck -11.2278 -1.45813 -2.34809
upperneck 13.8048 -2.01704 2.8947
head 6.08375 -0.873769 1.1314
rclavicle 6.99536e-014 2.68359e-015
rhumerus -24.1241 7.17037 -86.8119
rradius 67.611
rwrist -9.55073
rhand -26.4915 -31.2838
rfingers 7.12502
rthumb 0.0710809 -61.2635
lclavicle 6.99536e-014 2.68359e-015
lhumerus -60.5189 21.442 57.503
lradius 5.83593
lwrist -23.896
lhand -23.7696 -13.293
lfingers 7.12502
lthumb 2.69986 16.6696
rfemur 9.06795 -2.12481 28.878
rtibia 12.7166
rfoot -2.85762 25.1731
rtoes 16.1697
lfemur -41.8977 3.23616 -9.61113
ltibia 17.705
lfoot -15.5468 7.99664
ltoes -14.8698
114
root 7.84492 15.5785 -15.9268 9.50315 -8.34908 -7.61748
lowerback 0.488944 4.82823 7.82015
upperback -3.59098 6.68769 1.3035
thorax -3.27841 3.12395 -3.17088
lowerneck -10.8951 -1.57011 -2.5826
upperneck 13.7124 -2.18374 3.2218
head 6.0082 -0.944758 1.2611
rclavicle -3.09079e-014 -9.69075e-015
rhumerus -24.6217 7.05571 -86.6389
rradius 68.8817
rwrist -9.6666
rhand -25.5398 -33.0849
rfingers 7.12502
rthumb 0.990227 -63.0623
lclavicle -3.09079e-014 -9.69075e-015
lhumerus -61.6757 21.1465 56.5362
lradius 5.95831
lwrist -22.7943
lhand -24.0064 -12.8033
lfingers 7.12502
lthumb 2.47119 17.1621
rfemur 10.4714 -1.69855 28.8115
rtibia 11.9403
rfoot -1.93964 24.6946
rtoes 10.9372
lfemur -42.0718 3.89375 -9.82446
ltibia 17.9606
lfoot -15.1604 7.02833
ltoes -15.8117
115
root 7.85781 15.5614 -15.6384 9.40925 -8.41619 -7.20424
lowerback 0.543536 4.90818 7.27648
upperback -3.75518 6.79152 1.13014
thorax -3.50601 3.17757 -3.06999
lowerneck -10.6487 -1.69764 -2.55364
upperneck 13.5644 -2.35961 3.19781
head 5.92411 -1.03346 1.23526
rclavicle 4.59204e-014 5.06901e-015
rhumerus -25.4805 6.64482 -86.4386
rradius 69.8658
rwrist -9.37273
rhand -25.4485 -32.6868
rfingers 7.12502
rthumb 1.07841 -62.6638
lclavicle 4.59204e-014 5.06901e-015
lhumerus -62.5076 20.832 55.7103
lradius 5.68961
lwrist -21.9323
lhand -24.9655 -12.6463
lfingers 7.12502
lthumb 1.54489 17.3279
rfemur 11.8711 -1.28045 28.1381
rtibia 11.281
rfoot -1.1687 24.1093
rtoes 7.49816
lfemur -42.2117 3.9482 -10.5802
ltibia 18.8313
lfoot -15.3374 5.79177
ltoes -14.2884
116
root 7.88256 15.54 -15.3383 9.40875 -7.63391 -6.59075
lowerback 0.199885 4.69836 6.85639
upperback -3.84746 6.46681 0.839414
thorax -3.44998 3.02561 -3.11021
lowerneck -10.5847 -1.79172 -2.46689
upperneck 13.4225 -2.51004 3.2655
head 5.8729 -1.09834 1.23027
rclavicle -7.55747e-014 -7.60351e-015
rhumerus -26.2323 6.19875 -86.393
rradius 70.7054
rwrist -9.33284
rhand -25.1186 -32.0754
rfingers 7.12502
rthumb 1.39698 -62.0506
lclavicle -7.55747e-014 -7.60351e-015
lhumerus -63.015 20.6689 54.8401
lradius 5.44124
lwrist -21.2673
lhand -25.1567 -12.3998
lfingers 7.12502
lthumb 1.36018 17.5756
rfemur 12.8846 -0.944505 27.5096
rtibia 11.103
rfoot 0.163073 23.0667
rtoes 10.4718
lfemur -42.5839 3.2408 -11.6437
ltibia 20.0539
lfoot -14.437 4.53405
ltoes -10.4098
117
root 7.89302 15.5184 -15.0492 9.3808 -7.48316 -6.53082
lowerback 0.0754746 4.67457 6.61708
upperback -3.80364 6.41299 0.701581
thorax -3.34714 3.00926 -3.10705
lowerneck -10.8217 -1.86629 -2.2349
upperneck 13.4126 -2.66202 3.36872
head 5.91337 -1.15031 1.2105
rclavicle 3.33958e-014 6.4605e-015
rhumerus -26.9355 5.76721 -86.4372
rradius 71.6138
rwrist -9.69452
rhand -24.2793 -31.5517
rfingers 7.12502
rthumb 2.20761 -61.52
lclavicle 3.33958e-014 6.4605e-015
lhumerus -63.319 20.7446 53.9871
lradius 5.35416
lwrist -20.767
lhand -23.9525 -11.9846
lfingers 7.12502
lthumb 2.52324 17.9802
rfemur 13.6591 0.191098 27.5143
rtibia 11.4245
rfoot 2.1692 21.6211
rtoes 14.7037
lfemur -42.7129 3.12743 -12.0655
ltibia 21.6062
lfoot -12.1702 3.93592
ltoes -1.62671
118
root 7.8989 15.4992 -14.7661 9.36271 -7.12585 -6.52621
lowerback -0.0761736 4.64814 6.39133
upperback -3.77651 6.35708 0.611509
thorax -3.25078 2.99137 -3.06073
lowerneck -10.8614 -1.88108 -2.16446
upperneck 13.1556 -2.73407 3.68725
head 5.84515 -1.15917 1.29327
rclavicle 3.56011e-014 6.95746e-016
rhumerus -27.7824 5.19997 -86.3841
rradius 72.4784
rwrist -10.1346
rhand -24.6203 -32.2843
rfingers 7.12502
rthumb 1.87827 -62.2558
lclavicle 3.56011e-014 6.95746e-016
lhumerus -63.4253 20.8189 53.3641
lradius 5.08274
lwrist -20.705
lhand -23.5188 -11.8212
lfingers 7.12502
lthumb 2.94206 18.1382
rfemur 14.0162 1.06786 27.758
rtibia 12.4516
rfoot 3.02026 20.0669
rtoes 14.1258
lfemur -43.0649 3.20027 -12.561
ltibia 23.4141
lfoot -8.9424 4.55748
ltoes 1.50224
119
root 7.90029 15.5007 -14.4764 9.33648 -6.72683 -6.37467
lowerback -0.281863 4.64787 5.98739
upperback -3.80203 6.33313 0.546419
thorax -3.19638 2.99257 -2.88994
lowerneck -10.6033 -1.96761 -2.61586
upperneck 12.8847 -2.86797 4.34041
head 5.73612 -1.20323 1.56404
rclavicle 3.15881e-014 1.0138e-014
rhumerus -28.897 4.61931 -86.1966
rradius 73.1659
rwrist -10.5329
rhand -25.5645 -33.158
rfingers 7.12502
rthumb 0.966354 -63.1355
lclavicle 3.15881e-014 1.0138e-014
lhumerus -63.5395 20.7935 52.8903
lradius 4.72104
lwrist -21.112
lhand -24.055 -12.1548
lfingers 7.12502
lthumb 2.42429 17.8111
rfemur 13.8912 1.95308 27.9142
rtibia 14.4792
rfoot 3.19777 18.4893
rtoes 12.545
lfemur -43.4698 3.10614 -13.0262
ltibia 25.3211
lfoot -5.91646 5.34313
ltoes -2.13242
120
root 7.89798 15.5132 -14.1851 9.28174 -6.56367 -6.00595
lowerback -0.425951 4.69707 5.30516
upperback -3.78894 6.37313 0.39113
thorax -3.1487 3.03296 -2.66348
lowerneck -10.7167 -2.21594 -2.89764
upperneck 12.9647 -3.23263 4.83408
head 5.80679 -1.3555 1.73514
rclavicle 5.08858e-014 -6.55989e-015
rhumerus -30.0305 3.97732 -86.1211
rradius 73.3325
rwrist -10.7974
rhand -25.5383 -32.028
rfingers 7.12502
rthumb 0.991695 -62.0054
lclavicle 5.08858e-014 -6.55989e-015
lhumerus -63.2314 20.9265 52.421
lradius 3.91473
lwrist -21.8905
lhand -24.7367 -11.7454
lfingers 7.12502
lthumb 1.76583 18.227
rfemur 13.4153 3.18918 27.8517
rtibia 17.2963
rfoot 3.74119 16.9634
rtoes 12.1364
lfemur -43.7406 2.94328 -13.5302
ltibia 27.2631
lfoot -3.9703 5.48237
ltoes -3.17649
